<svg width="25" height="25">
<path d="M19.229 2.538a.745.745 0 0 0-.187.148l-.104.112-.012 1.853-.012 1.853-.322-.342a8.665 8.665 0 0 0-3.976-2.368c-.81-.215-1.221-.267-2.137-.269-.93-.002-1.468.062-2.264.268-1.992.516-3.831 1.868-4.987 3.665-.246.384-.684 1.287-.715 1.476A.505.505 0 0 0 5 9.5c.264 0 .349-.097.706-.81.184-.368.462-.847.617-1.065.374-.527 1.133-1.283 1.695-1.689.529-.382 1.455-.863 2.024-1.05a7.788 7.788 0 0 1 3.158-.342c.965.105 1.659.313 2.571.769.954.478 1.701 1.057 2.36 1.831l.286.335-2.104.021-2.103.021-.136.136c-.118.117-.136.165-.136.343 0 .178.018.226.136.343l.136.136h5.413l.137-.136.136-.136V2.793l-.129-.129c-.138-.137-.382-.195-.538-.126m.369 12.028c-.108.054-.188.181-.468.739-.186.371-.464.852-.619 1.07-.346.485-1.113 1.265-1.609 1.633a7.497 7.497 0 0 1-10.159-1.109l-.329-.378 2.105-.021 2.104-.021.137-.136c.117-.117.136-.165.136-.343 0-.178-.019-.226-.136-.343l-.137-.136H5.21l-.136.136-.136.136v5.414l.136.136c.117.117.165.136.343.136.178 0 .225-.019.343-.136l.136-.136.012-1.857.011-1.857.28.302c1.051 1.136 2.583 2.049 4.085 2.433.827.212 1.138.248 2.112.248.979-.001 1.341-.043 2.165-.252 2.354-.596 4.42-2.288 5.486-4.492.289-.598.324-.745.225-.952-.118-.249-.413-.342-.674-.214"/>
</svg>