<svg width="24" height="24">
<path d="M2.751 2.583c-.241.13-.231-.046-.231 3.917 0 3.978-.011 3.79.239 3.919.102.053.58.061 3.741.061 3.978 0 3.79.011 3.919-.239.053-.102.061-.58.061-3.741 0-3.978.011-3.79-.239-3.919-.175-.091-7.323-.089-7.49.002m11 0c-.241.13-.231-.046-.231 3.917 0 3.161.008 3.639.061 3.741.129.25-.059.239 3.919.239s3.79.011 3.919-.239c.053-.102.061-.58.061-3.741 0-3.978.011-3.79-.239-3.919-.175-.091-7.323-.089-7.49.002M9.5 6.5v3h-6l-.01-2.96c-.006-1.628-.002-2.983.008-3.01.016-.04.639-.048 3.011-.04L9.5 3.5v3m11 0v3h-6l-.01-2.96c-.006-1.628-.002-2.983.008-3.01.016-.04.639-.048 3.011-.04l2.991.01v3M2.751 13.583c-.241.13-.231-.046-.231 3.917 0 3.161.008 3.639.061 3.741.129.25-.059.239 3.919.239s3.79.011 3.919-.239c.053-.102.061-.58.061-3.741 0-3.978.011-3.79-.239-3.919-.175-.091-7.323-.089-7.49.002m11 0c-.241.13-.231-.046-.231 3.917 0 3.161.008 3.639.061 3.741.129.25-.059.239 3.919.239 3.161 0 3.639-.008 3.741-.061.25-.129.239.059.239-3.919s.011-3.79-.239-3.919c-.175-.091-7.323-.089-7.49.002M9.5 17.5v3h-6l-.01-2.96c-.006-1.628-.002-2.983.008-3.01.016-.04.639-.048 3.011-.04l2.991.01v3m11 0v3h-6l-.01-2.96c-.006-1.628-.002-2.983.008-3.01.016-.04.639-.048 3.011-.04l2.991.01v3"/>
</svg>
