<svg width="24" height="24">
<path d="M10.174 1.599C9.261 1.839 8.48 2.63 8.22 3.58c-.04.147-.075.476-.088.85l-.023.61H5.485c-2.529 0-2.63.003-2.752.078-.16.097-.224.214-.224.408 0 .181.09.33.263.436.117.071.207.078 1.058.078h.93v6.973c0 4.833.013 7.045.043 7.21.17.93.92 1.817 1.793 2.121.158.055.435.117.616.138.432.049 9.144.049 9.576 0 .181-.021.458-.083.616-.138.873-.304 1.623-1.191 1.793-2.121.03-.165.043-2.377.043-7.21V6.04h.93c.851 0 .941-.007 1.058-.078.173-.106.263-.255.263-.436 0-.194-.064-.311-.224-.408-.122-.075-.223-.078-2.752-.078h-2.624l-.023-.61c-.032-.892-.174-1.315-.631-1.891a2.636 2.636 0 0 0-1.427-.942c-.274-.07-.446-.077-1.826-.075-1.357.002-1.555.011-1.81.077m3.635 1.048c.251.118.58.404.75.653.22.322.29.592.312 1.19l.019.55H9.12v-.413c0-.503.053-.807.19-1.098.126-.266.477-.654.717-.795.352-.206.4-.211 2.033-.202l1.52.008.229.107m4.431 10.311c0 4.973-.013 6.978-.045 7.13a1.882 1.882 0 0 1-.517.917 1.64 1.64 0 0 1-.921.473c-.353.057-9.161.057-9.514 0-.677-.11-1.241-.638-1.429-1.338-.043-.163-.053-1.475-.054-7.15V6.04h12.48v6.918M9.409 9.897l-.149.137v3.72c0 3.711 0 3.72.084 3.833.102.138.358.236.515.197a.693.693 0 0 0 .248-.163l.134-.134-.01-3.747-.011-3.747-.131-.116c-.107-.096-.166-.117-.33-.117-.172 0-.221.019-.35.137m4.502-.02-.131.116-.011 3.747-.01 3.747.134.134a.693.693 0 0 0 .248.163c.157.039.413-.059.515-.197.084-.113.084-.122.084-3.833v-3.72l-.149-.137c-.129-.118-.178-.137-.35-.137-.164 0-.223.021-.33.117"/>
</svg>
