<svg width="24" height="24">
<path d="M11.213 2.579A4.49 4.49 0 0 0 7.52 7 4.464 4.464 0 0 0 12 11.48 4.464 4.464 0 0 0 16.48 7a4.478 4.478 0 0 0-3.715-4.421c-.405-.071-1.159-.071-1.552 0m1.615 1.024c.606.138 1.124.426 1.605.893.706.683 1.056 1.514 1.056 2.504s-.35 1.821-1.056 2.504c-.69.669-1.472.985-2.433.985-.99 0-1.821-.35-2.504-1.056-.669-.69-.985-1.472-.985-2.433 0-.99.35-1.821 1.056-2.504.887-.86 2.035-1.174 3.261-.893M7.213 14.579a4.517 4.517 0 0 0-3.634 3.656c-.087.492-.085 2.839.002 3.006.159.309.677.314.834.008.043-.084.06-.406.076-1.429.018-1.165.03-1.359.104-1.649a3.552 3.552 0 0 1 2.597-2.582l.348-.089h8.92l.348.089a3.552 3.552 0 0 1 2.597 2.582c.074.29.086.484.104 1.649.022 1.436.03 1.485.25 1.599.239.124.547.041.66-.178.087-.167.089-2.514.002-3.006a4.502 4.502 0 0 0-3.656-3.656c-.466-.082-9.101-.081-9.552 0"/>
</svg>
